<?xml version="1.0" standalone="no"?>
<!DOCTYPE svg PUBLIC "-//W3C//DTD SVG 20010904//EN"
 "http://www.w3.org/TR/2001/REC-SVG-20010904/DTD/svg10.dtd">
<svg version="1.0" xmlns="http://www.w3.org/2000/svg"
 width="700.000000pt" height="700.000000pt" viewBox="0 0 700.000000 700.000000"
 preserveAspectRatio="xMidYMid meet">
<metadata>
Created by potrace 1.14, written by Peter Selinger 2001-2017
</metadata>
<g transform="translate(0.000000,700.000000) scale(0.100000,-0.100000)"
fill="#000000" stroke="none">
<path d="M3374 6221 c-319 -317 -447 -467 -595 -701 -38 -60 -69 -111 -69
-114 0 -2 24 -22 53 -43 201 -147 385 -334 496 -506 l44 -67 51 43 c67 58 116
87 144 87 30 0 70 -21 144 -76 33 -24 63 -42 68 -39 4 2 40 51 80 107 115 161
235 285 385 398 50 38 100 78 112 89 l23 22 -29 54 c-55 103 -166 258 -259
364 -105 119 -415 429 -478 478 l-41 32 -129 -128z"/>
<path d="M2120 5438 c-85 -102 -170 -262 -229 -430 -34 -95 -78 -268 -86 -338
-2 -25 -8 -63 -11 -85 -4 -22 -8 -51 -9 -65 -25 -246 -26 -326 -6 -344 9 -7
52 -21 96 -31 239 -50 556 -171 710 -269 l52 -34 16 37 c8 20 28 65 42 101 60
146 171 330 280 466 22 27 45 54 50 60 33 36 122 140 133 155 15 22 4 47 -67
153 -92 138 -288 321 -471 441 -124 81 -415 225 -454 225 -6 0 -27 -19 -46
-42z"/>
<path d="M4720 5437 c-351 -157 -637 -384 -808 -641 l-73 -109 23 -25 c13 -15
43 -47 67 -72 166 -173 312 -405 406 -645 15 -38 30 -73 34 -77 4 -4 58 17
121 48 215 105 419 181 590 219 173 40 158 23 154 165 -4 162 -14 236 -65 490
-22 111 -77 273 -130 385 -75 156 -179 306 -213 304 -6 0 -54 -19 -106 -42z"/>
<path d="M3420 4672 c-310 -278 -484 -516 -599 -823 l-39 -103 36 -29 c33 -25
193 -170 229 -206 12 -12 30 2 121 90 59 57 109 106 112 110 16 18 139 115
172 135 34 22 44 24 71 15 55 -19 199 -134 381 -305 l50 -47 55 54 c117 112
157 149 184 165 15 9 27 22 27 30 0 17 -52 166 -81 229 -94 211 -187 340 -390
542 -91 90 -233 211 -247 211 -4 -1 -41 -31 -82 -68z"/>
<path d="M1491 4026 c-17 -22 -65 -188 -77 -268 -2 -16 -6 -43 -9 -60 -27
-174 -22 -765 7 -793 2 -2 62 -15 133 -29 72 -15 141 -29 155 -32 14 -3 36 -7
50 -10 14 -3 43 -10 65 -16 22 -6 45 -11 50 -13 124 -28 283 -77 524 -162 85
-29 160 -52 168 -49 7 3 13 14 13 25 0 42 113 333 163 420 11 20 27 49 36 64
24 43 32 55 92 147 93 142 92 124 17 195 -85 80 -197 169 -283 227 -82 54
-253 148 -270 148 -6 0 -15 4 -21 9 -20 19 -260 102 -391 134 -76 20 -190 42
-253 51 -63 9 -125 18 -137 20 -13 2 -27 -2 -32 -8z"/>
<path d="M5379 4026 c-2 -2 -26 -7 -54 -10 -42 -6 -104 -18 -209 -41 -294 -65
-664 -244 -873 -421 -83 -71 -163 -152 -163 -165 0 -7 34 -64 76 -127 123
-183 194 -336 256 -552 17 -58 34 -109 39 -114 9 -10 25 -5 254 79 156 58 415
133 548 159 15 3 37 8 50 11 12 2 33 6 47 9 63 14 118 25 145 29 62 11 95 20
96 26 0 3 2 15 5 26 22 110 22 643 0 751 -2 12 -7 45 -11 75 -9 67 -52 217
-71 247 -12 19 -23 22 -73 22 -32 0 -60 -2 -62 -4z"/>
<path d="M3438 3630 c-77 -62 -219 -200 -271 -263 -21 -26 -43 -52 -50 -59
-54 -57 -194 -266 -263 -393 -69 -128 -134 -304 -134 -363 0 -34 43 -69 151
-126 103 -54 282 -158 369 -215 31 -20 63 -40 71 -46 41 -25 146 -100 164
-116 19 -17 24 -15 170 82 193 129 401 253 538 321 l108 53 -6 45 c-29 207
-164 490 -340 715 -111 141 -339 361 -417 401 -26 13 -29 12 -90 -36z"/>
<path d="M1226 2694 c2 -33 7 -79 10 -104 3 -25 8 -63 10 -85 3 -22 12 -71 20
-110 8 -38 17 -80 20 -91 45 -222 232 -596 402 -809 69 -85 264 -282 351 -354
97 -80 359 -251 384 -251 3 0 40 50 82 111 184 265 438 551 704 789 52 47 108
97 123 111 l29 27 -38 29 c-197 154 -623 386 -928 506 -231 91 -537 187 -680
212 -16 3 -37 8 -45 10 -33 10 -319 56 -382 61 l-67 6 5 -58z"/>
<path d="M5667 2744 c-1 -2 -25 -6 -52 -9 -28 -4 -57 -8 -65 -10 -8 -3 -33 -7
-55 -11 -33 -4 -142 -27 -249 -50 -11 -3 -31 -7 -44 -10 -61 -12 -340 -97
-452 -137 -372 -133 -692 -297 -1019 -525 l-94 -65 24 -20 c111 -89 339 -308
455 -437 157 -174 291 -342 395 -492 33 -49 63 -88 66 -88 8 0 165 95 238 143
215 145 472 407 617 632 181 279 309 639 333 935 4 41 8 85 10 98 7 43 -4 53
-56 51 -27 -2 -50 -4 -52 -5z"/>
<path d="M3454 1784 c-73 -55 -176 -148 -299 -271 -209 -209 -281 -290 -431
-490 -108 -144 -142 -198 -132 -208 22 -22 379 -127 477 -141 20 -2 47 -7 61
-10 68 -16 271 -31 400 -31 245 0 462 35 706 114 77 25 149 52 160 60 18 13
18 15 1 46 -23 43 -165 232 -252 338 -148 179 -527 556 -614 612 -29 18 -29
18 -77 -19z"/>
</g>
</svg>
