<?xml version="1.0" standalone="no"?>
<!DOCTYPE svg PUBLIC "-//W3C//DTD SVG 20010904//EN"
 "http://www.w3.org/TR/2001/REC-SVG-20010904/DTD/svg10.dtd">
<svg version="1.0" xmlns="http://www.w3.org/2000/svg"
 width="512.000000pt" height="512.000000pt" viewBox="0 0 512.000000 512.000000"
 preserveAspectRatio="xMidYMid meet">
<defs>
<linearGradient id="0" x1="0" y1="0.49" x2="1" y2="0.51">
<stop offset="0%" stop-color="#96f7a7"/>
<stop offset="33.33%" stop-color="#60e3a2"/>
<stop offset="100%" stop-color="#01b59c"/>
</linearGradient>
</defs>
<g transform="translate(0.000000,512.000000) scale(0.100000,-0.100000)" fill="url(#0)">
<path d="M2409 4493 c-201 -204 -304 -331 -407 -504 l-22 -36 89 -66 c106 -79
239 -219 301 -314 l45 -70 58 49 c74 62 96 62 175 3 33 -25 62 -45 64 -45 3 0
22 26 43 58 89 135 201 250 333 342 34 24 62 49 62 55 0 17 -77 142 -139 224
-91 122 -420 451 -450 451 -4 0 -72 -66 -152 -147z"/>
<path d="M1527 3948 c-89 -120 -159 -289 -197 -477 -20 -104 -40 -283 -40
-367 0 -59 -9 -53 115 -79 146 -32 377 -121 483 -188 l42 -27 9 22 c73 193
162 339 300 495 l81 93 -19 38 c-70 137 -243 303 -436 418 -83 49 -262 134
-283 134 -5 0 -30 -28 -55 -62z"/>
<path d="M3440 3971 c-251 -113 -459 -278 -577 -458 -29 -44 -53 -83 -53 -86
0 -3 27 -33 61 -67 124 -127 226 -285 290 -450 18 -47 33 -86 34 -87 1 -2 54
24 118 56 65 32 172 77 240 99 107 35 148 46 255 68 19 4 22 10 22 58 0 233
-63 521 -152 701 -43 85 -126 205 -143 204 -5 0 -48 -17 -95 -38z"/>
<path d="M2468 3386 c-122 -108 -185 -179 -264 -297 -64 -95 -116 -198 -150
-296 l-19 -53 40 -32 c22 -18 68 -59 102 -91 l62 -59 83 82 c117 115 211 190
238 190 29 0 149 -89 252 -188 l78 -75 68 64 c37 36 82 76 100 90 l33 25 -32
90 c-40 116 -90 211 -160 304 -59 80 -200 222 -285 290 l-52 40 -94 -84z"/>
<path d="M1072 2897 c-34 -90 -53 -213 -58 -382 -5 -145 6 -378 18 -390 2 -3
56 -14 119 -26 200 -36 450 -107 637 -180 73 -29 92 -30 92 -5 0 28 53 174 94
261 23 50 73 134 109 188 37 54 67 102 67 107 0 17 -157 153 -244 211 -206
138 -477 234 -752 264 l-62 7 -20 -55z"/>
<path d="M3855 2931 c-317 -56 -602 -190 -802 -376 -40 -37 -73 -71 -73 -76 0
-5 20 -36 45 -70 89 -121 163 -276 206 -434 11 -44 23 -82 24 -84 2 -1 50 15
107 37 201 78 390 131 612 172 60 11 111 22 114 25 12 12 23 244 18 385 -5
169 -24 298 -57 385 -20 53 -22 55 -57 54 -20 0 -82 -9 -137 -18z"/>
<path d="M2479 2626 c-203 -174 -404 -461 -468 -670 -37 -119 -39 -115 102
-188 124 -65 285 -164 389 -240 l58 -41 117 80 c135 91 273 174 386 229 l77
38 -6 36 c-15 91 -41 164 -95 275 -63 130 -148 249 -256 361 -76 79 -201 184
-218 184 -6 0 -45 -29 -86 -64z"/>
<path d="M896 2011 c-6 -10 13 -181 29 -260 42 -206 138 -421 272 -609 63 -90
219 -250 318 -327 72 -56 241 -165 256 -165 3 0 26 30 51 67 127 191 329 419
509 578 68 60 125 111 126 114 3 7 -81 65 -216 148 -294 183 -659 329 -1001
403 -127 27 -340 59 -344 51z"/>
<path d="M4155 2008 c-535 -76 -1031 -268 -1432 -554 l-63 -45 73 -61 c201
-170 449 -452 597 -677 l16 -23 85 50 c116 69 198 131 303 232 279 267 447
608 485 985 5 50 6 93 3 96 -4 3 -34 2 -67 -3z"/>
<path d="M2480 1268 c-107 -88 -313 -297 -402 -408 -86 -108 -188 -248 -188
-259 0 -4 42 -22 93 -39 336 -115 686 -132 1009 -48 110 29 238 75 238 86 0
11 -100 150 -188 260 -116 146 -449 471 -481 470 -4 0 -40 -28 -81 -62z"/>
</g>
</svg>
